<svg xmlns="http://www.w3.org/2000/svg" viewBox="0 0 276.93 276.93"><defs><style>.cls-1{font-size:24.29px;}.cls-1,.cls-10,.cls-11,.cls-12,.cls-13,.cls-14,.cls-17,.cls-18,.cls-19,.cls-2,.cls-20,.cls-21,.cls-22,.cls-23,.cls-24,.cls-25,.cls-26,.cls-27,.cls-28,.cls-29,.cls-3,.cls-30,.cls-31,.cls-32,.cls-33,.cls-35,.cls-36,.cls-37,.cls-38,.cls-4,.cls-5,.cls-6,.cls-7,.cls-8,.cls-9{font-family:ProximaNova-Bold, Proxima Nova;font-weight:700;}.cls-2{font-size:24.02px;}.cls-3{font-size:24.53px;}.cls-4{font-size:24.22px;}.cls-5{font-size:23.96px;}.cls-6{font-size:24.14px;}.cls-7{font-size:23.75px;}.cls-8{font-size:47.81px;}.cls-9{font-size:47.24px;}.cls-10{font-size:46.81px;}.cls-11{font-size:45.64px;}.cls-12{font-size:45.38px;}.cls-13{font-size:44.11px;}.cls-14{font-size:46.24px;}.cls-15,.cls-16{fill:none;stroke:#000;stroke-miterlimit:10;}.cls-15{stroke-width:3px;}.cls-16{stroke-width:1.5px;}.cls-17{font-size:11.74px;}.cls-18{font-size:11.68px;}.cls-19{font-size:11.67px;}.cls-20{font-size:11.62px;}.cls-21{font-size:11.59px;}.cls-22{font-size:11.54px;}.cls-23{font-size:11.49px;}.cls-24{font-size:11.5px;}.cls-25{font-size:11.49px;}.cls-26{font-size:11.52px;}.cls-27{font-size:11.56px;}.cls-28{font-size:11.56px;}.cls-29{font-size:11.6px;}.cls-30{font-size:11.67px;}.cls-31{font-size:14.56px;}.cls-32{font-size:14.42px;}.cls-33{font-size:14.22px;letter-spacing:-0.1em;}.cls-34{letter-spacing:0em;}.cls-35{font-size:14.37px;}.cls-36{font-size:14.19px;}.cls-37{font-size:14.6px;}.cls-38{font-size:14.37px;}</style></defs><title>midterm_logo</title><g id="hop"><path d="M741.34,404.09c5.31,2,10.87,3.16,16.38,4.48-4.86-5.67-8.29-12.46-13.54-17.81a35.48,35.48,0,0,0-8.63-6.36c-2.9-1.55-6.83-3.51-10.26-3.09a.12.12,0,0,1,0,.09,36.77,36.77,0,0,0,1.73,10.26C729.4,398.22,735.1,401.72,741.34,404.09Z" transform="translate(-585.7 -304.04)"/><path d="M734.93,379.72a57.44,57.44,0,0,0-8.13-1.06h0l-.63.07c-.11.32-.21.63-.31.94h0v0l-.14.42-.15.4a.17.17,0,0,0,0,.07l0,.08h.61l.34,0h.08a22.8,22.8,0,0,1,6.54,1.19A36.21,36.21,0,0,1,749,392.7l.59.73.74.62a2.08,2.08,0,0,1,.79.19c1.76.86,2.92,2.42,4.55,3.47a21,21,0,0,0,6.09,2.19A26.83,26.83,0,0,1,772,405.47c1.17,1,2.27,2,3.34,3.15C768.56,394.05,755,383.85,734.93,379.72Z" transform="translate(-585.7 -304.04)"/><path d="M768.8,405.39a27.18,27.18,0,0,0-10.66-5.45A18.85,18.85,0,0,1,753,398c2.74,3.92,5.3,8,8.55,11.51,0,0,0,0,0,0,.76.2,1.53.41,2.29.63.6.18-.38.39-.54.41a5,5,0,0,1-2.05-.11c-2.23-.65-4.47-1.21-6.72-1.74v.06h0a40.65,40.65,0,0,0,3.72,12.58,26.71,26.71,0,0,0,7.49,9.1c3.15,2.42,6.76,4.18,9.86,6.69a24.06,24.06,0,0,1,4.25,4.54,66.48,66.48,0,0,0-1.92-26.18A49,49,0,0,0,768.8,405.39Z" transform="translate(-585.7 -304.04)"/><path d="M723,378.77c-.61,0-1.23-.1-1.84-.2a57.78,57.78,0,0,0-13.74,2.09q-24.58,6.87-33.82,26.13c.35-.39.69-.78,1-1.16a19.54,19.54,0,0,1,4.12-3.8,12.44,12.44,0,0,1,4.15-1.45c3.11-.55,6.37-.31,9.17-2a1.42,1.42,0,0,1,.38-.14c.15-.25.3-.5.46-.75,3.42-5.44,7.71-10,13.58-12.75,5.11-2.41,10.72-3.54,16.21-4.74C722.78,379.59,722.87,379.18,723,378.77Z" transform="translate(-585.7 -304.04)"/><path d="M720,409.82a31.42,31.42,0,0,0,4.88,11.05,41.21,41.21,0,0,0,8.59,8.4c4.81,3.72,10.55,7.59,13.22,13.24,4.76-8.48,5.73-18.64,5.9-28.23,0,0,0,0,0-.08a48.5,48.5,0,0,1-1.12-5.59l0,0a1.52,1.52,0,0,1,0-.21v-.12s0-.09,0-.14h0V408c-1.21-.28-2.41-.56-3.62-.86a71.32,71.32,0,0,1-11.23-3.61,26.77,26.77,0,0,1-8.59-5.39,19.62,19.62,0,0,1-5-10.45c-.19.5-.38,1-.59,1.51a49.84,49.84,0,0,1-3.82,7.8A58.17,58.17,0,0,0,720,409.82Z" transform="translate(-585.7 -304.04)"/><path d="M701,443.65c3-3.61,6.9-6.35,10.67-9.23a40.32,40.32,0,0,0,6.72-6.13,8.2,8.2,0,0,0,2-4.14c.23-1.56.18-3.15.42-4.71a.16.16,0,0,1,.07-.11l-.05-.07c-3.42-5.57-4.66-12-5-18.42a18.76,18.76,0,0,1-5.82,4.41,37.38,37.38,0,0,1-12,3.07c.16,0,.25.08.24.1C694.1,420.21,698.2,432.05,701,443.65Z" transform="translate(-585.7 -304.04)"/><path d="M779,445.29a26.82,26.82,0,0,0-8.2-9.38c-3.23-2.28-6.83-4.08-9.76-6.77a26.72,26.72,0,0,1-5.8-7.82,59.75,59.75,0,0,1-3,15.3s0,0,0,.05a4.09,4.09,0,0,0,0,1.26l0,.32s0,.11,0,.05v.07a1.39,1.39,0,0,1,0,.41h0a0,0,0,0,0,0,0,16.88,16.88,0,0,0,2.58,10,58.85,58.85,0,0,0,5.87,7.21c.93,1.06,1.84,2.14,2.74,3.24,0,0,0,0,0,0a5.44,5.44,0,0,0,.9,1l0,0c1,1.28,2,2.57,2.87,3.91a23,23,0,0,1,3.78,9.4c.3-.66.6-1.31.9-2a120.07,120.07,0,0,0,7.29-25.84C779.22,445.65,779.13,445.47,779,445.29Z" transform="translate(-585.7 -304.04)"/><path d="M737.79,435.19c-4.75-4.25-10.21-7.58-14.35-12.35a9.16,9.16,0,0,1-1.67,5,35.4,35.4,0,0,1-6.61,6.27c-2.62,2-5.34,4-7.81,6.16-.08.54-.13,1.08-.21,1.61a.14.14,0,0,1,0,.06c.62,6,4.68,11.84,9.19,15.71,2.87,2.45,6.69,4.81,8.73,8.16,2.55-3.4,6.21-5.78,9.27-8.8a17.33,17.33,0,0,0,4.64-7.62,42.16,42.16,0,0,0,1.37-11.68s0,0,0,0A31.78,31.78,0,0,0,737.79,435.19Z" transform="translate(-585.7 -304.04)"/><path d="M687.09,409.36c-.44.05-1.67.2-2.05-.11-.21-.17-.15-.26,0-.32a2.87,2.87,0,0,1,.29-.31.12.12,0,0,1,0-.09,52.07,52.07,0,0,0,6-8.62c-2,.45-4.13.53-6.24.87-3.75.61-6,3.15-8.44,5.86a48.85,48.85,0,0,0-6.16,8.06Q667,427,668.36,443.33c.11,1.32.26,2.65.43,4a25.2,25.2,0,0,1,8.13-9c3.16-2.09,6.52-3.92,9.42-6.37a18.83,18.83,0,0,0,6.07-9.08c.33-1.71.6-3.43,1-5.13a.14.14,0,0,1,.07-.08l.09-.51a30.68,30.68,0,0,1,1.58-8.5C692.43,408.85,689.73,409,687.09,409.36Z" transform="translate(-585.7 -304.04)"/><path d="M714.33,458.58c-.48-.38-1-.77-1.4-1.16-4-3.55-7.61-8.72-8.62-14.11a23.56,23.56,0,0,0-2.56,3.49c-.25.41-2.89.52-3,0s-.21-.91-.31-1.36a103.66,103.66,0,0,1-4.57,10c-1.09,2.08-2.29,4.08-3.53,6.06a4,4,0,0,0,.06,1.38s0,0,0,0a24.3,24.3,0,0,0,5.11,13.57,48,48,0,0,0,4.1,4.68l0,0a2.54,2.54,0,0,0,.2.24,1.73,1.73,0,0,0,.3.25c1,1,2,2,3,2.93,0-.65,0-1.3,0-2a9.6,9.6,0,0,1,1-3.93c1-2.12,2.79-3.72,4.37-5.42a20.77,20.77,0,0,0,6-13.74A5,5,0,0,0,714.33,458.58Z" transform="translate(-585.7 -304.04)"/><path d="M756.55,454.59a38.28,38.28,0,0,1-5.19-6.84,16.25,16.25,0,0,1-1.76-5.11,33,33,0,0,1-1.84,2.91h0a.56.56,0,0,1,0,.08c-.25.36-2.83.4-3-.08a15.06,15.06,0,0,0-1.55-3.9c-.34,5.52-1.58,11-5.56,15.09-.16.17-.33.32-.49.48a.23.23,0,0,1,0,.15,6.6,6.6,0,0,0-1.2,2.62,10,10,0,0,0-.23,1.09c.12,4.78,3.43,8.6,6.17,12.29a78.78,78.78,0,0,1,6.61,10.87,37.79,37.79,0,0,1,5.11-9.63c3.26-4.38,6.49-9,7.92-14.32C759.89,458.3,758.17,456.42,756.55,454.59Z" transform="translate(-585.7 -304.04)"/><path d="M740.78,476.23c-.72-1.12-1.47-2.23-2.27-3.31-2.62-3.53-5.68-7.18-5.83-11.73-2.56,2.18-5,4.44-6.41,7.64-.2.45-2.9.49-3,0-.71-3.29-3.17-5.66-5.81-7.79a21.43,21.43,0,0,1-5.53,11.88C711,474,710,475,709,476.09a8.15,8.15,0,0,0-.35,2l0,0a19.39,19.39,0,0,0,7.14,14.16c.35.29.73.56,1.1.84.07.07.16.12.23.19a6.51,6.51,0,0,0,2.16,1.5v0a22.57,22.57,0,0,1,5.24,4.87c.91-1.47,1.81-3,2.86-4.34a39.32,39.32,0,0,1,5.57-5.45,47.7,47.7,0,0,0,5.15-5.48c1.48-1.82,2.89-3.86,3.06-6.26,0-.27,0-.53-.06-.8S740.9,476.6,740.78,476.23Z" transform="translate(-585.7 -304.04)"/><path d="M692,496.66c1.68-5,3.51-10,5.09-15-4.48-4.6-8.32-9.69-9.4-16.13l-.25.36c-2.15,3.05-4.81,5.75-6.8,8.92a17.42,17.42,0,0,0-1.77,3.76,85.06,85.06,0,0,0,12.85,17.81Z" transform="translate(-585.7 -304.04)"/><path d="M711.69,504.94c.9-3.64,3.25-6.63,4.59-10.08-1.32-1-2.66-1.88-3.85-2.87a18.6,18.6,0,0,1-6.09-9.89,23.21,23.21,0,0,1-.51,5c-.15.53-2.61.38-2.94.08q-1.77-1.63-3.53-3.31c-1.66,5-3.5,10-5.13,15.05a96.27,96.27,0,0,0,17,13.65A22.67,22.67,0,0,1,711.69,504.94Z" transform="translate(-585.7 -304.04)"/><path d="M735,504.52c-1.71-2.84-4-5.54-4.88-8.72-1.51,2.06-2.73,4.31-4.16,6.43h0l0,.08c-.26.38-2.78.39-3-.08a13.35,13.35,0,0,0-4.38-5.65c-1.3,2.68-3,5.19-3.78,8.1a22.9,22.9,0,0,0-.43,8.61c0,.41.11.83.18,1.26a84.06,84.06,0,0,0,9.1,4.46,101.22,101.22,0,0,0,14.13-7.26A22,22,0,0,0,735,504.52Z" transform="translate(-585.7 -304.04)"/><path d="M750.86,485.89c-.21.65-.41,1.3-.61,1.95s-2.78.46-3,0c-1.17-2.43-2.4-4.81-3.72-7.14a16.52,16.52,0,0,1-2.28,3.57,45.35,45.35,0,0,1-5.07,5.48c-1.21,1.09-2.46,2.15-3.64,3.28.08,0,.12.09.12.14.09,4.4,3.13,7.76,5.29,11.35a22.25,22.25,0,0,1,2.39,5.57,84.33,84.33,0,0,0,16.11-14A30.36,30.36,0,0,1,750.86,485.89Z" transform="translate(-585.7 -304.04)"/><path d="M768,472.6a25.07,25.07,0,0,0-4.37-9.57A49.35,49.35,0,0,1,757,474.1a39.46,39.46,0,0,0-4.07,6.54c0,.3,0,.6,0,.89a.28.28,0,0,1,.07.09,28.22,28.22,0,0,0,5.14,12.66,89.71,89.71,0,0,0,10.54-15.61A45.6,45.6,0,0,0,768,472.6Z" transform="translate(-585.7 -304.04)"/><path d="M696.56,442.39a11,11,0,0,0,.43-2.61.43.43,0,0,1,0-.07,134.73,134.73,0,0,1-3-13.56,20.64,20.64,0,0,1-5.46,6.45c-2.93,2.33-6.26,4.06-9.33,6.21a24.92,24.92,0,0,0-7.32,8.26,27.34,27.34,0,0,0-2.3,5.46,89.08,89.08,0,0,0,7.64,22.94,19.15,19.15,0,0,1,1.05-1.71c2.1-3,4.62-5.74,6.74-8.76a96.66,96.66,0,0,0,11.51-22.51A.17.17,0,0,1,696.56,442.39Z" transform="translate(-585.7 -304.04)"/><path d="M716.48,395.51h0a82.48,82.48,0,0,0,5.9-14.54c-2.22.5-4.43,1-6.61,1.63-5.69,1.62-10.94,4.18-15.07,8.51-5,5.21-7.5,12.14-12.33,17.44,3.32-.31,6.66-.53,10-1a27.45,27.45,0,0,0,11-3.68,21.16,21.16,0,0,0,6.31-6.83v0c.14-.21.27-.42.4-.64A7.89,7.89,0,0,0,716.48,395.51Z" transform="translate(-585.7 -304.04)"/><path id="stem" d="M723.12,377.41c.8,0,1.59-.06,2.39-.07l.93,0a27.33,27.33,0,0,1,.92-11.45.7.7,0,0,0-.69-.88l-3.87.12a1.23,1.23,0,0,0-1.11,1,44.78,44.78,0,0,0-.63,11.42C721.75,377.42,722.43,377.43,723.12,377.41Z" transform="translate(-585.7 -304.04)"/></g><g id="text"><text class="cls-1" transform="translate(58.48 207.88) rotate(43.41) scale(1.06 1)">B</text><text class="cls-2" transform="translate(78.78 225.26) rotate(29.33) scale(1.06 1)">R</text><text class="cls-3" transform="matrix(1.03, 0.27, -0.26, 0.97, 102.02, 237.21)">E</text><text class="cls-4" transform="translate(128.77 242.85) rotate(-1.73) scale(1.01 1)">W</text><text class="cls-5" transform="translate(160.81 239.46) rotate(-15.98) scale(1.25 1)">I</text><text class="cls-6" transform="translate(177.44 234.37) rotate(-28.43) scale(1.06 1)">N</text><text class="cls-7" transform="matrix(0.75, -0.72, 0.69, 0.72, 201.67, 219.76)">G</text><text class="cls-8" transform="translate(46.66 136.54) rotate(-79.07) scale(0.95 1)">G</text><text class="cls-9" transform="translate(70.04 74.93) rotate(-36.72) scale(0.97 1)">E</text><text class="cls-10" transform="translate(93.19 58.93) rotate(-21.24) scale(0.95 1)">Y</text><text class="cls-11" transform="translate(128.33 49.31) rotate(3.37)">R</text><text class="cls-11" transform="matrix(0.57, -0.83, 0.82, 0.57, 52.38, 103.14)">R</text><text class="cls-12" transform="translate(160.76 54.1) rotate(16.47) scale(1.04 1)">I</text><text class="cls-13" transform="translate(178.05 58.56) rotate(40.04) scale(0.94 1)">D</text><text class="cls-8" transform="matrix(0.44, 0.84, -0.89, 0.46, 199.85, 77.99)">G</text><text class="cls-14" transform="translate(217.69 108.29) rotate(76.93) scale(1.07 1)">E</text><circle class="cls-15" cx="138.48" cy="138.3" r="133.7"/><circle class="cls-16" cx="138.47" cy="138.47" r="137.72"/><text class="cls-17" transform="matrix(0.74, 0.68, -0.71, 0.71, 52.38, 221.66)">R</text><text class="cls-18" transform="matrix(0.81, 0.6, -0.63, 0.78, 60.75, 229.46)">I</text><text class="cls-19" transform="matrix(0.83, 0.58, -0.6, 0.8, 66.32, 233.28)">D</text><text class="cls-20" transform="matrix(0.9, 0.49, -0.51, 0.86, 75.45, 239.46)">G</text><text class="cls-21" transform="matrix(0.93, 0.44, -0.46, 0.89, 85.36, 245.24)">E</text><text class="cls-22" transform="matrix(0.98, 0.32, -0.34, 0.94, 95.51, 249.9)">T</text><text class="cls-23" transform="matrix(1.03, 0.19, -0.18, 0.98, 106, 253.56)">O</text><text class="cls-24" transform="matrix(1.04, 0.1, -0.1, 0.99, 118.2, 255.71)">W</text><text class="cls-25" transform="matrix(1.04, 0, -0.01, 1, 133.21, 257.26)">N</text><text class="cls-23" transform="translate(148.94 257.25) scale(1.04 1)">O</text><text class="cls-26" transform="matrix(1.01, -0.25, 0.26, 0.97, 162.37, 255.71)">N</text><text class="cls-27" transform="matrix(0.96, -0.38, 0.39, 0.92, 175.79, 251.95)">T</text><text class="cls-28" transform="matrix(0.96, -0.38, 0.39, 0.92, 185.38, 247.42)">A</text><text class="cls-29" transform="matrix(0.91, -0.47, 0.49, 0.87, 196.41, 242.14)">R</text><text class="cls-30" transform="matrix(0.83, -0.58, 0.61, 0.79, 206.58, 235.55)">I</text><text class="cls-23" transform="translate(208.37 229.46) scale(1.04 1)">O</text><path d="M651.65,461.22a5.51,5.51,0,0,0-2.25-1H604c-.31,0,1,.87,1.09.92a5.69,5.69,0,0,0,2.25,1h45.41C653.05,462.13,651.74,461.27,651.65,461.22Z" transform="translate(-585.7 -304.04)"/><path d="M662.09,487.05a5.65,5.65,0,0,0-2.25-1H610.51c-.3,0,1,.87,1.1.92a5.59,5.59,0,0,0,2.25,1h49.32C663.49,488,662.17,487.1,662.09,487.05Z" transform="translate(-585.7 -304.04)"/><path d="M844.29,460.47H800.71a5.63,5.63,0,0,0-2.25,1c-.18.1-1.31.91-1.09.91H841a5.61,5.61,0,0,0,2.25-1C843.38,461.28,844.51,460.47,844.29,460.47Z" transform="translate(-585.7 -304.04)"/><path d="M836.47,486H787.92a5.63,5.63,0,0,0-2.25,1c-.18.11-1.31.92-1.09.92h48.54a5.63,5.63,0,0,0,2.25-1C835.56,486.85,836.68,486,836.47,486Z" transform="translate(-585.7 -304.04)"/><text class="cls-31" transform="translate(28.05 174.77) scale(0.96 1)">E</text><text class="cls-32" transform="translate(39.64 174.77) scale(0.94 1)">S</text><text class="cls-33" transform="translate(50.7 174.77) scale(1.18 1)">T<tspan class="cls-34" x="6.9" y="0">.</tspan></text><text class="cls-35" transform="translate(212.48 174.91) scale(1.13 1)">1</text><text class="cls-36" transform="translate(219.98 174.97) scale(1.04 1)">9</text><text class="cls-37" transform="translate(230.83 174.82)">3</text><text class="cls-38" transform="translate(240.68 174.91) scale(1.05 1)">4</text></g></svg>